<svg width="46" height="34" viewBox="0 0 46 34" fill="none" xmlns="http://www.w3.org/2000/svg">
<path d="M26.009 9.93307C26.009 15.5491 29.753 18.7171 34.217 18.7171C35.513 18.7171 36.521 18.4291 37.529 17.8531C37.385 22.7491 33.497 26.9251 28.457 28.2211V33.2611C38.537 31.8211 45.593 23.4691 45.593 12.9571C45.593 5.18107 41.273 0.573071 35.513 0.573071C29.897 0.573071 26.009 4.46107 26.009 9.93307ZM0.376994 9.93307C0.376994 15.5491 4.12099 18.7171 8.44099 18.7171C9.881 18.7171 10.889 18.4291 11.897 17.8531C11.753 22.7491 7.865 26.9251 2.82499 28.2211V33.2611C12.905 31.8211 19.961 23.4691 19.961 12.9571C19.961 5.18107 15.641 0.573071 9.881 0.573071C4.12099 0.573071 0.376994 4.46107 0.376994 9.93307Z" fill="#123C7B"/>
</svg>
