<svg width="47" height="34" viewBox="0 0 47 34" fill="none" xmlns="http://www.w3.org/2000/svg">
<path d="M20.512 24.2928C20.512 18.6768 16.768 15.5088 12.304 15.5088C11.008 15.5088 10 15.7968 8.992 16.3728C9.136 11.4768 13.024 7.30076 18.064 6.00476V0.96476C7.984 2.40476 0.928 10.7568 0.928 21.2688C0.928 29.0448 5.248 33.6528 11.008 33.6528C16.624 33.6528 20.512 29.7648 20.512 24.2928ZM46.144 24.2928C46.144 18.6768 42.4 15.5088 38.08 15.5088C36.64 15.5088 35.632 15.7968 34.624 16.3728C34.768 11.4768 38.656 7.30076 43.696 6.00476V0.96476C33.616 2.40476 26.56 10.7568 26.56 21.2688C26.56 29.0448 30.88 33.6528 36.64 33.6528C42.4 33.6528 46.144 29.7648 46.144 24.2928Z" fill="#123C7B"/>
</svg>
