<svg width="131" height="41" viewBox="0 0 131 41" fill="none" xmlns="http://www.w3.org/2000/svg">
<g id="Group">
<g id="Group_2">
<g id="Group_3">
<path id="Vector" d="M33.9559 40.9475H20.2897C9.10501 40.9475 0 31.8425 0 20.6578C0 9.47317 9.10501 0.368164 20.2897 0.368164C31.4743 0.368164 40.5793 9.47317 40.5793 20.6578V34.3416H37.8356V20.6578C37.8356 10.9936 29.9714 3.1119 20.2897 3.1119C10.6079 3.1119 2.74374 10.9761 2.74374 20.6578C2.74374 30.3395 10.6079 38.2038 20.2897 38.2038H33.9559V40.9475Z" fill="#284D86"/>
</g>
<g id="Group_4">
<path id="Vector_2" d="M35.3193 40.8428H32.5756V20.6579C32.5756 13.8772 27.0531 8.35482 20.2724 8.35482C13.4917 8.35482 7.96932 13.8772 7.96932 20.6579C7.96932 27.4386 13.4917 32.9611 20.2724 32.9611H27.8396V35.7048H20.2724C11.9713 35.7048 5.22559 28.9591 5.22559 20.6579C5.22559 12.3568 11.9713 5.61108 20.2724 5.61108C28.5736 5.61108 35.3193 12.3568 35.3193 20.6579V40.8428Z" fill="#284D86"/>
</g>
<g id="Group_5">
<path id="Vector_3" d="M30.0937 34.3417H27.35V30.5843L20.2547 30.4795C14.8546 30.4795 10.4507 26.0755 10.4507 20.6579C10.4507 15.2404 14.8546 10.8364 20.2722 10.8364C25.6898 10.8364 30.0937 15.2404 30.0937 20.6579V34.3417ZM20.2722 13.5802C16.3751 13.5802 13.1944 16.7608 13.1944 20.6579C13.1944 24.5551 16.3751 27.7357 20.2722 27.7357L27.35 27.8406V20.6579C27.35 16.7608 24.1868 13.5802 20.2722 13.5802Z" fill="#284D86"/>
</g>
<g id="Group_6">
<path id="Vector_4" d="M40.5439 32.9609H25.4097V35.7047H40.5439V32.9609Z" fill="#284D86"/>
</g>
</g>
<g id="Group_7">
<g id="Group_8">
<g id="Group_9">
<g id="Group_10">
<g id="Group_11">
<g id="Group_12">
<path id="Vector_5" d="M72.1407 31.6851H67.6144V29.2035C65.6396 31.2657 63.0357 32.2968 59.7852 32.2968C56.8492 32.2968 54.3327 31.2308 52.2355 29.0987C50.1384 26.9666 49.0898 24.2403 49.0898 20.9024C49.0898 17.5995 50.1559 14.8732 52.2705 12.7236C54.3851 10.5741 56.9016 9.50806 59.8026 9.50806C63.0532 9.50806 65.6571 10.5391 67.6319 12.6013V10.1197H72.1407V31.6851ZM65.4824 26.2326C66.8979 24.852 67.6144 23.0869 67.6144 20.9024C67.6144 18.7354 66.8979 16.9528 65.4824 15.5722C64.0668 14.1916 62.4066 13.5101 60.5192 13.5101C58.4919 13.5101 56.8142 14.1916 55.4686 15.5373C54.1404 16.8829 53.4588 18.683 53.4588 20.9024C53.4588 23.1219 54.1229 24.9219 55.4686 26.2676C56.7968 27.6132 58.4919 28.2948 60.5192 28.2948C62.4066 28.2948 64.0668 27.5957 65.4824 26.2326Z" fill="#284D86"/>
<path id="Vector_6" d="M96.3795 12.7237C98.4941 14.8733 99.5602 17.5995 99.5602 20.9025C99.5602 24.2404 98.5116 26.9667 96.4145 29.0988C94.3174 31.2308 91.8008 32.2969 88.8648 32.2969C85.6143 32.2969 83.0104 31.2658 81.0356 29.2036V31.6852H76.5093V0.368164H81.0356V12.5839C83.0104 10.5217 85.6143 9.49065 88.8648 9.49065C91.7484 9.49065 94.2474 10.5742 96.3795 12.7237ZM93.1465 26.2676C94.4746 24.922 95.1387 23.1219 95.1387 20.9025C95.1387 18.683 94.4746 16.883 93.1465 15.5374C91.8183 14.1917 90.1231 13.5101 88.0959 13.5101C86.2085 13.5101 84.5657 14.1917 83.1327 15.5723C81.6997 16.9529 81.0006 18.718 81.0006 20.9025C81.0006 23.0695 81.7171 24.8521 83.1327 26.2327C84.5483 27.6133 86.2085 28.2948 88.0959 28.2948C90.1406 28.2948 91.8183 27.6133 93.1465 26.2676Z" fill="#284D86"/>
<path id="Vector_7" d="M102.025 31.6852V0.368164H106.551V31.6852H102.025Z" fill="#284D86"/>
<path id="Vector_8" d="M131 21.9863H113.506C113.716 23.9262 114.432 25.4815 115.673 26.6349C116.914 27.7884 118.364 28.3825 120.025 28.3825C123.013 28.3825 125.128 27.1418 126.368 24.6427L130.423 25.5165C129.549 27.7534 128.203 29.4311 126.403 30.5845C124.586 31.7379 122.471 32.2972 120.025 32.2972C117.001 32.2972 114.415 31.2311 112.265 29.1165C110.098 27.0019 109.032 24.2757 109.032 20.9378C109.032 17.5649 110.116 14.8212 112.265 12.6891C114.432 10.557 117.071 9.49097 120.199 9.49097C123.135 9.49097 125.634 10.5221 127.697 12.5493C129.776 14.594 130.86 17.2154 130.982 20.396V21.9863H131ZM116.04 14.8911C114.764 15.8173 113.96 17.1105 113.646 18.7707H126.351C126.001 17.0581 125.285 15.7474 124.184 14.8561C123.083 13.9648 121.755 13.5105 120.217 13.5105C118.696 13.493 117.316 13.9648 116.04 14.8911Z" fill="#284D86"/>
</g>
</g>
<g id="Group_13">
<path id="Vector_9" d="M53.0574 36.4906H51.0826V37.9062H53.0574V38.5703H51.0826V40.9295H50.3486V35.844H53.0574V36.4906Z" fill="#284D86"/>
<path id="Vector_10" d="M58.3175 40.9125H57.566L56.8844 39.4095H54.7174L54.0708 40.9125H53.3193L55.5038 35.792H56.0106L58.3175 40.9125ZM56.6048 38.7629L55.7835 36.9279L55.0145 38.7629H56.6048Z" fill="#284D86"/>
<path id="Vector_11" d="M63.4383 36.9628C62.8965 36.6657 62.3024 36.456 61.6732 36.456C60.4499 36.456 59.6635 37.3647 59.6635 38.3783C59.6635 39.322 60.3276 40.3007 61.6907 40.3007C62.3373 40.3007 62.9664 40.091 63.4907 39.7415V40.5454C62.8965 40.8599 62.2849 40.9997 61.6383 40.9997C59.7509 40.9997 58.8945 39.5842 58.8945 38.3958C58.8945 36.9977 60.0305 35.7744 61.6383 35.7744C62.4247 35.7744 63.0888 36.054 63.4208 36.1938V36.9628H63.4383Z" fill="#284D86"/>
<path id="Vector_12" d="M65.6398 40.9124H64.9058V35.8269H65.6398V40.9124Z" fill="#284D86"/>
<path id="Vector_13" d="M68.0172 40.2654H70.3066V40.9295H67.2832V35.844H68.0172V40.2654Z" fill="#284D86"/>
<path id="Vector_14" d="M72.194 40.9124H71.46V35.8269H72.194V40.9124Z" fill="#284D86"/>
<path id="Vector_15" d="M77.6631 36.4735H75.8805V40.9124H75.1465V36.4735H73.3989V35.8269H77.6456V36.4735H77.6631Z" fill="#284D86"/>
<path id="Vector_16" d="M80.932 38.2382V40.9295H80.1805V38.2382L78.3105 35.844H79.1843L80.5475 37.5916L81.9281 35.844H82.8019L80.932 38.2382Z" fill="#284D86"/>
<path id="Vector_17" d="M88.9011 36.9628C88.4642 36.5434 88.0448 36.4385 87.7127 36.4385C87.2059 36.4385 86.9088 36.7006 86.9088 37.0327C86.9088 37.4696 87.2059 37.6443 88.1846 38.2036C88.3943 38.3259 88.6389 38.5007 88.8487 38.7628C89.0059 38.9725 89.1283 39.2347 89.1283 39.6017C89.1283 40.4056 88.5516 40.9823 87.6603 40.9823C87.1535 40.9823 86.6816 40.8075 86.2972 40.5104V39.5842C86.4544 39.7764 86.9088 40.3357 87.6603 40.3357C88.0448 40.3357 88.4467 40.091 88.4467 39.6716C88.4467 39.2521 88.0098 38.9376 87.7826 38.7978C86.9787 38.3084 86.7515 38.1686 86.5243 37.889C86.3671 37.6793 86.2622 37.4521 86.2622 37.1201C86.2622 36.3511 86.8389 35.7744 87.7652 35.7744C88.1846 35.7744 88.5865 35.8967 88.936 36.1239V36.9628H88.9011Z" fill="#284D86"/>
<path id="Vector_18" d="M95.6638 38.3781C95.6638 39.8461 94.5454 40.9995 92.8852 40.9995C91.2948 40.9995 90.1938 39.8286 90.1938 38.4131C90.1938 37.0674 91.1725 35.7917 92.9201 35.7917C94.5978 35.7742 95.6638 37.015 95.6638 38.3781ZM90.9453 38.3956C90.9453 39.549 91.8541 40.318 92.9201 40.318C93.4619 40.318 94.0561 40.0908 94.4056 39.7063C94.7201 39.3568 94.9124 38.7976 94.9124 38.3607C94.9124 37.5218 94.2658 36.4558 92.9376 36.4558C91.522 36.4558 90.9453 37.5393 90.9453 38.3956Z" fill="#284D86"/>
<path id="Vector_19" d="M97.796 40.2654H100.085V40.9295H97.062V35.844H97.796V40.2654Z" fill="#284D86"/>
<path id="Vector_20" d="M105.503 38.7275C105.503 39.2169 105.503 39.9334 104.927 40.4402C104.472 40.8421 103.913 40.9994 103.319 40.9994C102.602 40.9994 101.816 40.7548 101.414 40.1081C101.134 39.6538 101.134 39.0771 101.134 38.7275V35.844H101.868V38.7275C101.868 39.3916 101.921 39.6538 102.183 39.9159C102.393 40.1431 102.742 40.3353 103.319 40.3353C104.14 40.3353 104.49 39.9159 104.629 39.6712C104.734 39.4965 104.769 39.2169 104.769 38.7275V35.844H105.486V38.7275H105.503Z" fill="#284D86"/>
<path id="Vector_21" d="M110.851 36.4735H109.069V40.9124H108.335V36.4735H106.587V35.8269H110.834V36.4735H110.851Z" fill="#284D86"/>
<path id="Vector_22" d="M112.808 40.9124H112.074V35.8269H112.808V40.9124Z" fill="#284D86"/>
<path id="Vector_23" d="M119.693 38.3781C119.693 39.8461 118.575 40.9995 116.914 40.9995C115.324 40.9995 114.223 39.8286 114.223 38.4131C114.223 37.0674 115.202 35.7917 116.949 35.7917C118.645 35.7742 119.693 37.015 119.693 38.3781ZM114.975 38.3956C114.975 39.549 115.883 40.318 116.949 40.318C117.491 40.318 118.085 40.0908 118.435 39.7063C118.749 39.3568 118.942 38.7976 118.942 38.3607C118.942 37.5218 118.295 36.4558 116.967 36.4558C115.551 36.4558 114.975 37.5393 114.975 38.3956Z" fill="#284D86"/>
<path id="Vector_24" d="M125.828 40.9124H125.198L121.808 36.9978V40.9124H121.126V35.8269H121.721L125.146 39.7765V35.8269H125.845V40.9124H125.828Z" fill="#284D86"/>
<path id="Vector_25" d="M129.864 36.9628C129.428 36.5434 129.008 36.4385 128.676 36.4385C128.169 36.4385 127.872 36.7006 127.872 37.0327C127.872 37.4696 128.169 37.6443 129.148 38.2036C129.358 38.3259 129.602 38.5007 129.812 38.7628C129.969 38.9725 130.092 39.2347 130.092 39.6017C130.092 40.4056 129.515 40.9823 128.624 40.9823C128.117 40.9823 127.645 40.8075 127.261 40.5104V39.5842C127.418 39.7764 127.872 40.3357 128.624 40.3357C129.008 40.3357 129.41 40.091 129.41 39.6716C129.41 39.2521 128.973 38.9376 128.746 38.7978C127.942 38.3084 127.715 38.1686 127.488 37.889C127.33 37.6793 127.226 37.4521 127.226 37.1201C127.226 36.3511 127.802 35.7744 128.729 35.7744C129.148 35.7744 129.55 35.8967 129.899 36.1239V36.9628H129.864Z" fill="#284D86"/>
</g>
</g>
</g>
</g>
</g>
</g>
</svg>
