<svg width="276" height="86" viewBox="0 0 276 86" fill="none" xmlns="http://www.w3.org/2000/svg">
<path d="M71.4523 85.3897H42.6948C19.1594 85.3897 0 66.2303 0 42.6948C0 19.1594 19.1594 0 42.6948 0C66.2303 0 85.3897 19.1594 85.3897 42.6948V71.489H79.6161V42.6948C79.6161 22.3587 63.0677 5.77355 42.6948 5.77355C22.3219 5.77355 5.77355 22.3219 5.77355 42.6948C5.77355 63.0677 22.3219 79.6161 42.6948 79.6161H71.4523V85.3897Z" fill="white"/>
<path d="M74.3208 85.169H68.5472V42.6948C68.5472 28.4264 56.9266 16.8058 42.6582 16.8058C28.3898 16.8058 16.7692 28.4264 16.7692 42.6948C16.7692 56.9632 28.3898 68.5838 42.6582 68.5838H58.5814V74.3574H42.6582C25.1904 74.3574 10.9956 60.1626 10.9956 42.6948C10.9956 25.2271 25.1904 11.0322 42.6582 11.0322C60.1259 11.0322 74.3208 25.2271 74.3208 42.6948V85.169Z" fill="white"/>
<path d="M63.3254 71.4886H57.5519V63.5822L42.6215 63.3615C31.2583 63.3615 21.9912 54.0944 21.9912 42.6944C21.9912 31.2944 31.2583 22.0273 42.6583 22.0273C54.0583 22.0273 63.3254 31.2944 63.3254 42.6944V71.4886ZM42.6583 27.8009C34.4577 27.8009 27.7648 34.4938 27.7648 42.6944C27.7648 50.8951 34.4577 57.588 42.6583 57.588L57.5519 57.8086V42.6944C57.5519 34.4938 50.8957 27.8009 42.6583 27.8009Z" fill="white"/>
<path d="M85.3162 68.584H53.4697V74.3575H85.3162V68.584Z" fill="white"/>
<path d="M151.804 65.8998H142.279V60.6779C138.124 65.0173 132.645 67.1869 125.805 67.1869C119.627 67.1869 114.331 64.9437 109.918 60.4573C105.505 55.9708 103.299 50.234 103.299 43.2102C103.299 36.2598 105.542 30.5231 109.992 25.9998C114.441 21.4766 119.737 19.2334 125.841 19.2334C132.681 19.2334 138.161 21.4031 142.316 25.7424V20.5205H151.804V65.8998ZM137.793 54.4263C140.772 51.5211 142.279 47.8069 142.279 43.2102C142.279 38.6502 140.772 34.8992 137.793 31.994C134.814 29.0889 131.321 27.6547 127.349 27.6547C123.083 27.6547 119.553 29.0889 116.721 31.9205C113.927 34.7521 112.492 38.5398 112.492 43.2102C112.492 47.8805 113.89 51.6682 116.721 54.4998C119.516 57.3315 123.083 58.7656 127.349 58.7656C131.321 58.7656 134.814 57.2947 137.793 54.4263Z" fill="white"/>
<path d="M202.81 25.9994C207.259 30.5226 209.503 36.2594 209.503 43.2097C209.503 50.2336 207.296 55.9703 202.883 60.4568C198.47 64.9432 193.175 67.1865 186.997 67.1865C180.157 67.1865 174.678 65.0168 170.522 60.6774V65.8994H160.998V0H170.522V25.7052C174.678 21.3658 180.157 19.1961 186.997 19.1961C193.065 19.1961 198.323 21.4761 202.81 25.9994ZM196.007 54.4994C198.801 51.6677 200.199 47.88 200.199 43.2097C200.199 38.5394 198.801 34.7516 196.007 31.92C193.212 29.0884 189.645 27.6542 185.379 27.6542C181.407 27.6542 177.95 29.0884 174.935 31.9935C171.92 34.8987 170.449 38.6129 170.449 43.2097C170.449 47.7697 171.956 51.5206 174.935 54.4258C177.914 57.331 181.407 58.7652 185.379 58.7652C189.681 58.7652 193.212 57.331 196.007 54.4994Z" fill="white"/>
<path d="M214.688 65.8994V0H224.213V65.8994H214.688Z" fill="white"/>
<path d="M275.66 45.4898H238.849C239.29 49.5718 240.798 52.8447 243.409 55.2718C246.02 57.6989 249.072 58.9492 252.566 58.9492C258.854 58.9492 263.304 56.3382 265.915 51.0795L274.446 52.9182C272.607 57.6253 269.776 61.1557 265.988 63.5827C262.164 66.0098 257.714 67.1866 252.566 67.1866C246.204 67.1866 240.761 64.9434 236.238 60.4937C231.678 56.044 229.435 50.3073 229.435 43.2834C229.435 36.186 231.715 30.4124 236.238 25.926C240.798 21.4395 246.351 19.1963 252.933 19.1963C259.111 19.1963 264.37 21.366 268.709 25.6318C273.086 29.9344 275.366 35.4505 275.623 42.1434V45.4898H275.66ZM244.181 30.5595C241.497 32.5085 239.805 35.2298 239.143 38.7234H265.878C265.142 35.1195 263.635 32.3615 261.318 30.486C259.001 28.6105 256.206 27.6544 252.97 27.6544C249.771 27.6176 246.866 28.6105 244.181 30.5595Z" fill="white"/>
<path d="M111.647 76.012H107.491V78.9907H111.647V80.3882H107.491V85.3527H105.947V74.6514H111.647V76.012Z" fill="white"/>
<path d="M122.716 85.3159H121.134L119.7 82.1533H115.14L113.78 85.3159H112.198L116.795 74.541H117.861L122.716 85.3159ZM119.112 80.7926L117.383 76.9313L115.765 80.7926H119.112Z" fill="white"/>
<path d="M133.49 77.0055C132.35 76.3804 131.1 75.9391 129.776 75.9391C127.202 75.9391 125.547 77.8513 125.547 79.9842C125.547 81.97 126.945 84.0294 129.813 84.0294C131.174 84.0294 132.498 83.5881 133.601 82.8526V84.5442C132.35 85.2062 131.063 85.5004 129.703 85.5004C125.731 85.5004 123.929 82.5217 123.929 80.021C123.929 77.0791 126.32 74.5049 129.703 74.5049C131.358 74.5049 132.755 75.0933 133.454 75.3874V77.0055H133.49Z" fill="white"/>
<path d="M138.124 85.3165H136.58V74.6152H138.124V85.3165Z" fill="white"/>
<path d="M143.126 83.9552H147.943V85.3527H141.581V74.6514H143.126V83.9552Z" fill="white"/>
<path d="M151.915 85.3165H150.37V74.6152H151.915V85.3165Z" fill="white"/>
<path d="M163.425 75.9759H159.674V85.3165H158.13V75.9759H154.452V74.6152H163.388V75.9759H163.425Z" fill="white"/>
<path d="M170.302 79.6894V85.3527H168.72V79.6894L164.786 74.6514H166.624L169.493 78.3288L172.398 74.6514H174.237L170.302 79.6894Z" fill="white"/>
<path d="M187.07 77.0055C186.151 76.1229 185.269 75.9023 184.57 75.9023C183.503 75.9023 182.878 76.4539 182.878 77.1526C182.878 78.072 183.503 78.4397 185.563 79.6165C186.004 79.8739 186.519 80.2416 186.96 80.7933C187.291 81.2346 187.549 81.7862 187.549 82.5584C187.549 84.25 186.335 85.4636 184.46 85.4636C183.393 85.4636 182.4 85.0958 181.591 84.4707V82.5217C181.922 82.9262 182.878 84.1029 184.46 84.1029C185.269 84.1029 186.114 83.5881 186.114 82.7055C186.114 81.8229 185.195 81.161 184.717 80.8668C183.025 79.8371 182.547 79.5429 182.069 78.9546C181.738 78.5133 181.518 78.0352 181.518 77.3365C181.518 75.7184 182.731 74.5049 184.68 74.5049C185.563 74.5049 186.409 74.7623 187.144 75.2404V77.0055H187.07Z" fill="white"/>
<path d="M201.302 79.984C201.302 83.073 198.949 85.5001 195.455 85.5001C192.109 85.5001 189.792 83.0362 189.792 80.0575C189.792 77.2259 191.851 74.5414 195.529 74.5414C199.059 74.5046 201.302 77.1156 201.302 79.984ZM191.373 80.0208C191.373 82.4479 193.286 84.0659 195.529 84.0659C196.669 84.0659 197.919 83.5879 198.655 82.7788C199.317 82.0433 199.721 80.8666 199.721 79.9472C199.721 78.182 198.36 75.9388 195.566 75.9388C192.587 75.9388 191.373 78.2188 191.373 80.0208Z" fill="white"/>
<path d="M205.789 83.9552H210.606V85.3527H204.244V74.6514H205.789V83.9552Z" fill="white"/>
<path d="M222.006 80.7191C222.006 81.7488 222.006 83.2565 220.792 84.323C219.836 85.1688 218.66 85.4998 217.409 85.4998C215.902 85.4998 214.247 84.9849 213.401 83.6243C212.812 82.6681 212.812 81.4546 212.812 80.7191V74.6514H214.357V80.7191C214.357 82.1165 214.467 82.6681 215.019 83.2197C215.46 83.6978 216.196 84.1023 217.409 84.1023C219.138 84.1023 219.873 83.2198 220.167 82.7049C220.388 82.3372 220.462 81.7488 220.462 80.7191V74.6514H221.969V80.7191H222.006Z" fill="white"/>
<path d="M233.259 75.9759H229.508V85.3165H227.964V75.9759H224.286V74.6152H233.222V75.9759H233.259Z" fill="white"/>
<path d="M237.378 85.3165H235.833V74.6152H237.378V85.3165Z" fill="white"/>
<path d="M251.867 79.984C251.867 83.073 249.513 85.5001 246.02 85.5001C242.673 85.5001 240.356 83.0362 240.356 80.0575C240.356 77.2259 242.416 74.5414 246.093 74.5414C249.66 74.5046 251.867 77.1156 251.867 79.984ZM241.938 80.0208C241.938 82.4479 243.85 84.0659 246.093 84.0659C247.233 84.0659 248.484 83.5879 249.219 82.7788C249.881 82.0433 250.285 80.8666 250.285 79.9472C250.285 78.182 248.925 75.9388 246.13 75.9388C243.151 75.9388 241.938 78.2188 241.938 80.0208Z" fill="white"/>
<path d="M264.775 85.3165H263.451L256.317 77.0791V85.3165H254.882V74.6152H256.133L263.34 82.9262V74.6152H264.811V85.3165H264.775Z" fill="white"/>
<path d="M273.269 77.0055C272.35 76.1229 271.467 75.9023 270.769 75.9023C269.702 75.9023 269.077 76.4539 269.077 77.1526C269.077 78.072 269.702 78.4397 271.761 79.6165C272.203 79.8739 272.718 80.2416 273.159 80.7933C273.49 81.2346 273.747 81.7862 273.747 82.5584C273.747 84.25 272.534 85.4636 270.658 85.4636C269.592 85.4636 268.599 85.0958 267.79 84.4707V82.5217C268.121 82.9262 269.077 84.1029 270.658 84.1029C271.467 84.1029 272.313 83.5881 272.313 82.7055C272.313 81.8229 271.394 81.161 270.916 80.8668C269.224 79.8371 268.746 79.5429 268.268 78.9546C267.937 78.5133 267.716 78.0352 267.716 77.3365C267.716 75.7184 268.93 74.5049 270.879 74.5049C271.761 74.5049 272.607 74.7623 273.343 75.2404V77.0055H273.269Z" fill="white"/>
</svg>
